<?xml version="1.0" encoding="UTF-8"?>
<svg width="83px" height="49px" viewBox="0 0 83 49" version="1.1" xmlns="http://www.w3.org/2000/svg" xmlns:xlink="http://www.w3.org/1999/xlink">
    <!-- Generator: Sketch 50.2 (55047) - http://www.bohemiancoding.com/sketch -->
    <title>Group 5</title>
    <desc>Created with Sketch.</desc>
    <defs>
        <radialGradient cx="100%" cy="0%" fx="100%" fy="0%" r="1103.93124%" gradientTransform="translate(1.000000,0.000000),scale(0.144578,1.000000),rotate(172.197555),scale(1.000000,10.266543),translate(-1.000000,-0.000000)" id="radialGradient-1">
            <stop stop-color="#FFFFFF" stop-opacity="0" offset="0%"></stop>
            <stop stop-color="#000000" offset="100%"></stop>
        </radialGradient>
    </defs>
    <g id="Page-1" stroke="none" stroke-width="1" fill="none" fill-rule="evenodd">
        <g id="Artboard" transform="translate(-98.000000, -109.000000)">
            <g id="Group-5" transform="translate(98.000000, 105.000000)">
                <g id="Group-2">
                    <rect id="Rectangle-8" fill="url(#radialGradient-1)" x="0" y="41" width="83" height="12"></rect>
                    <rect id="Rectangle-8" fill="url(#radialGradient-1)" x="0" y="35" width="83" height="12"></rect>
                    <g id="noun_Border-Collie_950809" transform="translate(43.000000, 16.000000)" fill="#000000" fill-rule="nonzero">
                        <g id="Group">
                            <path d="M29.853,5.75384615 L29.76,5.75384615 L29.791,5.72307692 C29.791,5.72307692 29.14,5.41538462 29.078,5.38461538 C29.047,5.38461538 29.016,5.35384615 28.954,5.32307692 C29.388,5.23076923 29.791,5.13846154 30.07,4.95384615 C30.721,4.49230769 30.814,3.41538462 30.597,3.07692308 C30.535,2.98461538 30.349,2.70769231 28.086,2.70769231 C27.993,2.70769231 27.28,2.70769231 27.032,2.33846154 C26.846,2.09230769 26.381,1.90769231 25.606,1.84615385 C25.606,1.81538462 25.575,1.78461538 25.544,1.75384615 C25.296,1.56923077 24.552,0.923076923 24.366,0.830769231 C24.18,0.738461538 23.653,0.707692308 23.436,0.676923077 C23.436,0.676923077 23.436,0.676923077 23.436,0.676923077 C23.064,0.461538462 22.506,0.215384615 22.382,0.184615385 C22.289,0.153846154 22.196,0.184615385 22.134,0.246153846 C22.072,0.307692308 22.072,0.4 22.103,0.492307692 C22.165,0.615384615 22.289,0.953846154 22.227,1.23076923 C22.134,1.63076923 22.32,2.30769231 22.785,2.76923077 C22.568,3.07692308 22.444,3.41538462 22.351,3.66153846 C22.289,3.81538462 22.227,3.93846154 22.196,4.03076923 L22.134,4 C22.041,4.15384615 21.886,4.33846154 21.545,4.55384615 C21.514,4.55384615 21.483,4.58461538 21.452,4.61538462 C20.956,4.89230769 20.088,5.23076923 18.476,5.63076923 C16.399,6.12307692 14.136,5.96923077 12.617,5.84615385 C11.78,5.78461538 11.16,5.75384615 10.757,5.81538462 C10.447,5.90769231 7.781,6.67692308 7.037,7.53846154 C6.975,7.6 6.944,7.66153846 6.882,7.72307692 C6.355,8.21538462 5.828,8.98461538 5.425,9.84615385 C5.177,10.3692308 5.022,11.1076923 4.867,11.8769231 C4.65,12.9230769 4.402,14.1230769 3.844,14.9846154 C3.379,15.6923077 2.79,15.9384615 2.17,16.1846154 C1.55,16.4307692 0.93,16.7076923 0.558,17.4153846 C0.155,18.2153846 0.31,19.6 0.496,19.8461538 C0.558,19.9076923 0.651,19.9384615 0.744,19.9076923 C0.93,19.8769231 0.93,19.6923077 0.961,19.5692308 C0.961,19.4153846 1.023,19.2615385 1.054,19.1384615 C0.961,20.3384615 1.674,21.1692308 1.705,21.2307692 C1.767,21.2923077 1.891,21.3230769 1.953,21.2615385 C2.046,21.2 2.077,21.1076923 2.046,21.0153846 C2.015,20.9230769 1.984,20.6769231 2.201,19.9692308 C2.201,19.9384615 2.232,19.9076923 2.232,19.8769231 C2.232,19.9384615 2.201,20 2.201,20.0923077 C2.046,21.1692308 2.449,21.8769231 2.48,21.9076923 C2.511,21.9692308 2.604,22.0307692 2.697,22 C2.79,21.9692308 2.852,21.9076923 2.852,21.8153846 C2.883,21.6 3.038,21.0153846 3.317,20.6769231 C2.79,21.8461538 3.193,22.6153846 3.193,22.6461538 C3.224,22.7384615 3.317,22.7692308 3.41,22.7384615 C3.503,22.7076923 3.565,22.6461538 3.596,22.5538462 C3.689,22.0307692 4.03,21.7538462 4.464,21.4153846 C4.867,22.5230769 5.115,22.6461538 5.301,22.6769231 C5.301,22.6769231 5.549,22.7384615 5.828,22.7384615 C6.262,22.7384615 6.603,22.6153846 6.789,22.4 C6.913,22.2769231 7.068,22 6.913,21.5692308 C6.82,21.2923077 7.037,20.4923077 7.254,19.8153846 C7.471,19.0461538 7.75,18.1538462 7.781,17.3538462 C7.781,17.3230769 7.812,17.2923077 7.812,17.2615385 C7.812,17.2 7.874,16.3692308 7.781,15.4461538 C7.843,15.5384615 7.874,15.6 7.936,15.6923077 C8.463,16.5846154 7.998,18.6769231 7.812,19.0769231 C7.564,19.6 7.626,20.6769231 8.37,21.2615385 C8.494,21.3538462 8.618,21.5384615 8.742,21.7538462 C8.742,21.7846154 8.773,21.7846154 8.773,21.8153846 C8.897,22.0307692 9.021,22.2461538 9.114,22.4615385 C9.393,22.9846154 9.61,23.4153846 9.858,23.6 C10.075,23.7538462 10.323,23.8153846 10.664,23.8153846 C10.943,23.8153846 11.253,23.7538462 11.563,23.7230769 C11.656,23.6923077 11.78,23.6923077 11.873,23.6615385 C12.431,23.5692308 12.524,23.2307692 12.555,23.1076923 C12.617,22.6769231 12.245,22.2769231 11.842,22.0923077 C11.377,21.8769231 11.005,21.6615385 10.85,21.3230769 C10.757,21.0461538 10.509,20.3384615 10.726,19.3538462 C10.819,18.9230769 11.067,18.4615385 11.315,18.0615385 C11.532,17.6923077 11.749,17.2923077 11.873,16.8615385 C12.369,15.2307692 12.524,14.8 12.586,14.7076923 C12.741,14.7692308 12.958,14.8923077 13.113,15.1076923 C13.578,15.6923077 14.725,15.8461538 14.756,15.8461538 C14.849,15.8461538 14.911,15.8153846 14.973,15.7230769 C15.004,15.6615385 15.004,15.5692308 14.942,15.5076923 C15.469,15.6923077 16.151,15.9076923 16.957,16.1230769 C17.236,16.1846154 17.484,16.2769231 17.732,16.3384615 C17.422,16.9846154 17.143,17.4769231 16.988,17.6307692 C16.895,17.7230769 16.864,17.8769231 16.895,18.0307692 C16.957,18.1538462 17.081,18.2769231 17.205,18.2769231 C17.205,18.2769231 17.298,18.2769231 17.422,18.2769231 C17.236,18.7384615 17.081,19.0461538 16.988,19.1692308 C16.864,19.2923077 16.864,19.5076923 16.988,19.6615385 C17.112,19.8153846 17.298,19.8461538 17.453,19.7538462 L17.484,19.7230769 C17.236,20.7384615 17.081,21.3538462 17.081,21.5384615 C17.081,22 17.236,22.6153846 17.732,22.7692308 C17.794,22.8 18.197,22.9230769 18.569,22.9230769 C18.91,22.9230769 19.158,22.8307692 19.344,22.6461538 C19.592,22.4 19.623,22.0615385 19.468,21.6 C19.468,21.5692308 19.158,20.7692308 19.809,19.8769231 C20.336,19.1384615 20.739,17.3230769 20.863,16.7692308 C21.111,17.2 21.266,17.6307692 21.266,17.6307692 C21.297,17.7230769 21.359,17.7846154 21.452,17.7846154 C21.545,17.7846154 21.607,17.7538462 21.669,17.6615385 C21.793,17.4153846 21.855,17.0769231 21.917,16.7692308 C22.196,17.3846154 22.444,17.9076923 22.661,18.3692308 C23.002,19.0769231 23.312,19.6923077 23.436,20.2461538 C23.498,20.5538462 23.901,21.1692308 24.521,22.0923077 C24.738,22.4 24.924,22.7076923 25.048,22.8923077 C25.389,23.4769231 26.102,23.6307692 27.187,23.2923077 C27.497,23.2 27.683,22.9846154 27.714,22.7076923 C27.776,22.3076923 27.528,21.8461538 27.032,21.5076923 C26.598,21.1692308 25.947,20.1230769 25.823,19.4769231 C25.699,18.8 25.513,18.2461538 25.482,18.1538462 C25.327,17.5384615 25.079,16.6153846 24.924,15.9076923 C25.048,15.6615385 25.327,15.2 25.482,15.0461538 C25.544,14.9846154 25.699,14.8307692 26.009,14.0615385 C26.04,14.0923077 26.102,14.1230769 26.164,14.1230769 C26.35,14.1538462 26.505,14.0615385 26.567,13.9076923 C26.567,13.9076923 27.559,11.6923077 27.931,10.8307692 C28.303,10 28.241,9.23076923 28.21,9.04615385 C28.21,8.67692308 28.086,8.33846154 27.993,8 C27.9,7.75384615 27.838,7.53846154 27.838,7.32307692 C27.838,7.32307692 27.838,7.32307692 27.838,7.32307692 C27.993,7.16923077 28.644,7.07692308 29.171,7.10769231 C29.698,7.13846154 30.101,6.8 30.287,6.21538462 C30.318,6.09230769 30.287,5.93846154 30.225,5.84615385 C30.132,5.81538462 30.008,5.75384615 29.853,5.75384615 Z M28.241,5.47692308 C28.52,5.56923077 28.83,5.72307692 28.892,5.72307692 C28.892,5.72307692 28.892,5.72307692 28.892,5.72307692 L28.148,5.72307692 C27.962,5.72307692 27.838,5.69230769 27.745,5.66153846 C27.838,5.63076923 28.024,5.56923077 28.241,5.47692308 Z M30.256,3.32307692 C30.287,3.38461538 30.287,3.56923077 30.256,3.75384615 C30.132,3.66153846 29.946,3.44615385 29.853,3.23076923 C30.039,3.26153846 30.194,3.29230769 30.256,3.32307692 Z M28.086,3.13846154 C28.551,3.13846154 29.016,3.16923077 29.388,3.2 C29.481,3.50769231 29.791,4 30.163,4.18461538 C30.101,4.36923077 29.977,4.52307692 29.822,4.61538462 C29.605,4.76923077 29.202,4.86153846 28.799,4.95384615 C28.706,4.98461538 28.613,4.98461538 28.52,5.01538462 C28.365,4.03076923 28.117,3.47692308 27.838,3.29230769 C27.807,3.26153846 27.745,3.2 27.683,3.10769231 C27.838,3.13846154 27.993,3.13846154 28.086,3.13846154 Z M24.955,1.81538462 C24.8,1.81538462 24.676,1.81538462 24.49,1.81538462 C24.304,1.6 24.118,1.35384615 23.963,1.16923077 C24.056,1.16923077 24.149,1.2 24.18,1.2 C24.273,1.26153846 24.583,1.50769231 24.955,1.81538462 Z M6.851,19.6923077 C6.603,20.5538462 6.355,21.2923077 6.51,21.7230769 C6.572,21.9076923 6.572,22.0615385 6.479,22.1538462 C6.386,22.2769231 6.138,22.3384615 5.828,22.3384615 C5.58,22.3384615 5.394,22.3076923 5.363,22.3076923 C5.363,22.3076923 5.177,22.2153846 4.805,21.1692308 C5.022,20.9846154 5.208,20.8 5.301,20.7076923 C5.766,20.1846154 6.107,18.8923077 6.262,17.9692308 C6.293,18.2769231 6.324,18.5538462 6.355,18.7384615 C6.355,18.8307692 6.448,18.9230769 6.541,18.9230769 C6.634,18.9230769 6.727,18.8923077 6.758,18.8 L7.316,17.4461538 L7.347,17.4461538 C7.316,18.1538462 7.068,18.9538462 6.851,19.6923077 Z M11.594,22.4615385 C11.842,22.5846154 12.121,22.8307692 12.09,23.0461538 C12.059,23.1692308 11.904,23.2307692 11.78,23.2615385 C11.687,23.2923077 11.563,23.2923077 11.439,23.3230769 C11.16,23.3846154 10.881,23.4153846 10.633,23.4153846 C10.385,23.4153846 10.23,23.3846154 10.075,23.2615385 C9.889,23.1384615 9.672,22.7076923 9.455,22.2769231 C9.362,22.0923077 9.269,21.9076923 9.176,21.7230769 C9.176,21.7230769 9.207,21.6923077 9.207,21.6615385 C9.579,21.2307692 10.075,20.6153846 10.168,20.1538462 C10.168,20.8 10.323,21.2615385 10.416,21.4769231 C10.602,21.9692308 11.098,22.2153846 11.594,22.4615385 Z M19.468,19.6307692 C18.693,20.7076923 19.065,21.6923077 19.065,21.7538462 C19.158,22.0307692 19.158,22.2461538 19.034,22.3692308 C18.91,22.4923077 18.724,22.5230769 18.569,22.5230769 C18.228,22.5230769 17.887,22.4 17.856,22.4 C17.577,22.3076923 17.484,21.8461538 17.484,21.5692308 C17.484,21.4461538 17.608,20.8307692 17.98,19.4153846 C18.011,19.3230769 17.98,19.2615385 17.918,19.2 C17.856,19.1384615 17.763,19.1384615 17.701,19.1692308 L17.391,19.3230769 C17.577,19.0153846 17.794,18.4923077 17.918,18.0923077 C17.949,18.0307692 17.918,17.9384615 17.856,17.8769231 C17.794,17.8153846 17.701,17.7846154 17.639,17.8153846 C17.484,17.8769231 17.36,17.8769231 17.267,17.8769231 C17.515,17.5692308 17.825,16.9538462 18.042,16.4923077 C18.352,16.5846154 19.034,16.7692308 19.716,16.7692308 C19.964,16.7692308 20.181,16.7384615 20.398,16.6769231 C20.274,17.5692308 19.902,19.0769231 19.468,19.6307692 Z M21.452,16.9538462 C21.328,16.7076923 21.173,16.4307692 20.987,16.2153846 C20.987,16.2153846 20.956,16.1846154 20.956,16.1846154 C20.956,16.1846154 20.956,16.1846154 20.956,16.1846154 C20.925,16.1846154 20.925,16.1538462 20.894,16.1538462 C20.894,16.1538462 20.894,16.1538462 20.894,16.1538462 C20.863,16.1538462 20.863,16.1538462 20.832,16.1538462 C20.832,16.1538462 20.832,16.1538462 20.832,16.1538462 C20.832,16.1538462 20.832,16.1538462 20.832,16.1538462 C20.801,16.1538462 20.801,16.1538462 20.77,16.1846154 C20.77,16.1846154 20.77,16.1846154 20.77,16.1846154 C19.809,16.7076923 18.135,16.0615385 18.135,16.0615385 C18.135,16.0615385 18.135,16.0615385 18.135,16.0615385 C18.135,16.0615385 18.135,16.0615385 18.135,16.0615385 C17.825,15.9692308 17.484,15.8769231 17.112,15.7846154 C16.058,15.4769231 14.601,15.0769231 14.353,14.7692308 C14.291,14.6769231 14.167,14.6461538 14.074,14.7384615 C13.981,14.8 13.95,14.9230769 14.012,15.0153846 C14.012,15.0153846 14.105,15.1384615 14.291,15.3846154 C13.981,15.2923077 13.671,15.1384615 13.516,14.9230769 C13.144,14.4307692 12.586,14.3076923 12.555,14.3076923 C12.462,14.2769231 12.369,14.3384615 12.338,14.4307692 C12.338,14.4615385 12.307,14.4923077 12.307,14.5230769 C12.307,14.5538462 12.276,14.5846154 12.276,14.6153846 C12.121,14.9230769 11.811,16 11.563,16.8307692 C11.439,17.2 11.253,17.5692308 11.036,17.9384615 C10.788,18.4 10.509,18.8615385 10.385,19.3538462 C10.385,19.3538462 10.385,19.3538462 10.385,19.3846154 C10.354,19.4153846 10.323,19.4461538 10.323,19.4769231 C10.323,19.5076923 10.23,19.6 10.168,19.6923077 C9.982,19.9384615 9.889,20.0615385 9.889,20.1538462 C9.827,20.4923077 9.393,21.0461538 9.083,21.4153846 C8.99,21.2615385 8.866,21.1076923 8.773,21.0461538 C8.246,20.6153846 8.153,19.7538462 8.339,19.3538462 C8.494,18.9846154 9.083,16.7076923 8.432,15.6 C8.37,15.5076923 8.308,15.4153846 8.246,15.3230769 C8.06,15.0153846 7.843,14.6461538 7.626,14.2461538 C7.564,14.0307692 7.471,13.8461538 7.347,13.6615385 C7.347,13.6615385 7.347,13.6307692 7.316,13.6307692 C7.006,12.9538462 6.789,12.1846154 6.789,11.3538462 C6.789,11.2307692 6.696,11.1384615 6.572,11.1384615 C6.572,11.1384615 6.572,11.1384615 6.572,11.1384615 C6.448,11.1384615 6.355,11.2307692 6.355,11.3538462 C6.355,12.4923077 6.758,13.5384615 7.223,14.4 C7.564,15.3538462 7.564,16.6153846 7.533,17.1076923 L7.378,17.0769231 C7.285,17.0461538 7.192,17.1076923 7.13,17.2 L6.82,17.9384615 C6.758,17.5384615 6.665,17.1384615 6.541,16.8923077 C6.51,16.8 6.417,16.7692308 6.324,16.8 C6.231,16.8307692 6.169,16.8923077 6.169,16.9846154 C6.076,17.7538462 5.704,19.8769231 5.146,20.4923077 C5.084,20.5846154 4.805,20.8307692 4.65,20.9538462 L4.464,20.9230769 C4.402,20.9846154 4.309,21.0461538 4.247,21.0769231 C3.968,21.2923077 3.689,21.5076923 3.503,21.7846154 C3.503,21.4153846 3.627,20.8615385 4.092,20.2153846 C4.154,20.1538462 4.154,20.0615385 4.092,19.9692308 C4.061,19.9076923 3.968,19.8461538 3.875,19.8769231 C3.844,19.9076923 3.41,20 3.1,20.3076923 C2.914,20.5230769 2.759,20.7692308 2.666,21.0461538 C2.604,20.8 2.604,20.4923077 2.635,20.1230769 C2.759,19.2 3.441,18.5846154 3.441,18.5846154 C3.534,18.5230769 3.534,18.3692308 3.472,18.2769231 C3.41,18.1846154 3.255,18.1846154 3.162,18.2461538 L2.48,18.8307692 C2.17,19.1076923 1.922,19.4461538 1.798,19.8461538 C1.736,20.0615385 1.674,20.2461538 1.643,20.4 C1.457,19.9692308 1.271,19.2923077 1.581,18.4923077 C1.612,18.4 1.581,18.3076923 1.519,18.2769231 C1.457,18.2153846 1.364,18.2153846 1.271,18.2461538 C1.24,18.2461538 0.899,18.4307692 0.651,18.8307692 C0.651,18.4307692 0.682,17.9692308 0.868,17.6615385 C1.178,17.0769231 1.674,16.8615385 2.263,16.6153846 C2.883,16.3692308 3.596,16.0615385 4.123,15.2615385 C4.712,14.3384615 4.991,13.1076923 5.208,12 C5.363,11.2615385 5.518,10.5538462 5.735,10.0615385 C6.107,9.23076923 6.603,8.49230769 7.099,8.03076923 C7.099,8.03076923 7.099,8.03076923 7.13,8 C7.192,7.93846154 7.223,7.87692308 7.285,7.81538462 C7.843,7.2 9.827,6.49230769 10.788,6.21538462 C11.098,6.15384615 11.687,6.18461538 12.493,6.24615385 C13.981,6.36923077 16.213,6.52307692 18.321,6.06153846 C18.352,6.52307692 18.507,7.10769231 18.848,7.38461538 L20.026,8.36923077 L21.514,10.2461538 C21.576,10.3076923 21.669,10.3384615 21.762,10.3076923 C21.855,10.2769231 21.917,10.1846154 21.886,10.0923077 L21.886,9.72307692 C22.227,10.1846154 22.692,10.8615385 23.126,11.3230769 C23.715,11.9692308 23.87,13.2923077 23.901,13.6 L23.25,14.8923077 C23.25,14.9230769 23.219,14.9230769 23.219,14.9538462 C23.033,15.7538462 22.94,16.2153846 22.94,16.5230769 C22.661,16.3384615 22.289,16.0307692 21.917,15.7538462 C21.917,15.7230769 21.886,15.6923077 21.886,15.6923077 C21.173,14.2153846 20.46,13.5384615 20.429,13.5076923 C20.336,13.4153846 20.212,13.4461538 20.119,13.5076923 C20.026,13.6 20.057,13.7230769 20.119,13.8153846 C20.119,13.8153846 20.832,14.4923077 21.514,15.9384615 C21.514,16.1538462 21.514,16.5846154 21.452,16.9538462 Z M25.079,18.3384615 C25.079,18.3384615 25.079,18.3384615 25.079,18.3384615 C25.079,18.3692308 25.265,18.9230769 25.42,19.6307692 C25.575,20.4 26.257,21.5384615 26.815,21.9384615 C27.156,22.1846154 27.342,22.4923077 27.311,22.7384615 C27.28,22.8615385 27.218,22.9230769 27.063,22.9846154 C26.722,23.0769231 26.443,23.1384615 26.195,23.1384615 C25.823,23.1384615 25.544,23.0153846 25.42,22.7692308 C25.296,22.5846154 25.11,22.2769231 24.893,21.9384615 C24.459,21.2923077 23.932,20.4615385 23.87,20.2153846 C23.715,19.6307692 23.405,18.9846154 23.064,18.2461538 C22.816,17.7538462 22.537,17.2 22.258,16.5230769 C22.909,17.0153846 23.126,17.1692308 23.25,17.1692308 C23.312,17.1692308 23.343,17.1384615 23.374,17.1076923 C23.436,17.0461538 23.467,16.9538462 23.405,16.8307692 C23.374,16.6461538 23.498,15.8153846 23.684,15.1076923 L24.149,14.2769231 C24.211,14.6461538 24.304,15.0769231 24.335,15.2307692 C24.335,15.2615385 24.366,15.3230769 24.428,15.5692308 C24.459,15.7230769 24.521,15.8769231 24.521,15.9692308 C24.521,16 24.521,16.0307692 24.521,16.0615385 C24.645,16.7076923 24.893,17.6923077 25.079,18.3384615 Z M27.559,10.7076923 C27.249,11.4461538 26.474,13.1384615 26.257,13.6307692 L26.257,13.5076923 C26.257,13.4153846 26.164,13.3230769 26.071,13.3230769 C25.978,13.3230769 25.885,13.3538462 25.854,13.4461538 C25.451,14.4923077 25.265,14.7384615 25.203,14.8 C25.079,14.9230769 24.924,15.1384615 24.8,15.3538462 C24.769,15.2307692 24.738,15.1384615 24.738,15.1076923 C24.707,14.8307692 24.49,13.8153846 24.428,13.6307692 C24.428,13.6307692 24.428,13.6 24.428,13.6 C24.428,13.5384615 24.304,11.8461538 23.529,11.0153846 C22.816,10.2461538 21.917,8.89230769 21.917,8.86153846 C21.855,8.76923077 21.762,8.73846154 21.669,8.76923077 C21.576,8.8 21.514,8.89230769 21.514,8.98461538 L21.545,9.44615385 L20.429,8.06153846 C20.429,8.06153846 20.398,8.03076923 20.398,8.03076923 L19.22,7.07692308 C19.003,6.89230769 18.848,6.36923077 18.848,5.96923077 C20.305,5.6 21.142,5.26153846 21.638,4.98461538 C21.948,5.10769231 22.909,5.66153846 23.343,6.46153846 C23.591,6.92307692 23.839,7.2 24.056,7.44615385 C24.211,7.63076923 24.335,7.75384615 24.428,7.93846154 C24.583,8.27692308 24.831,8.61538462 25.079,8.92307692 L25.141,8.98461538 C25.203,9.04615385 25.265,9.07692308 25.358,9.04615385 C25.451,9.01538462 25.482,8.95384615 25.513,8.89230769 L25.544,8.76923077 L25.885,9.32307692 C25.916,9.38461538 26.009,9.41538462 26.071,9.41538462 C26.164,9.41538462 26.226,9.35384615 26.257,9.29230769 L26.629,8.36923077 C26.753,8.06153846 26.97,7.78461538 27.249,7.63076923 C27.28,7.63076923 27.373,7.6 27.466,7.6 C27.497,7.81538462 27.559,8.03076923 27.652,8.27692308 C27.745,8.58461538 27.869,8.89230769 27.869,9.2 C27.869,9.2 27.869,9.23076923 27.869,9.23076923 C27.807,9.23076923 27.9,9.93846154 27.559,10.7076923 Z M29.202,6.76923077 C28.737,6.73846154 27.931,6.76923077 27.59,7.07692308 C27.59,7.07692308 27.59,7.07692308 27.559,7.07692308 C27.528,7.07692308 27.435,7.10769231 27.373,7.10769231 C27.156,7.13846154 27.063,7.16923077 27.001,7.2 C26.66,7.41538462 26.381,7.75384615 26.226,8.15384615 L26.009,8.70769231 L25.575,8.03076923 C25.544,7.96923077 25.482,7.93846154 25.389,7.93846154 C25.389,7.93846154 25.358,7.93846154 25.358,7.93846154 C25.265,7.96923077 25.203,8.03076923 25.203,8.12307692 L25.172,8.30769231 C25.017,8.12307692 24.924,7.90769231 24.8,7.72307692 C24.707,7.50769231 24.552,7.32307692 24.366,7.13846154 C24.149,6.92307692 23.932,6.64615385 23.715,6.24615385 C23.312,5.50769231 22.537,4.95384615 22.041,4.67692308 C22.258,4.49230769 22.382,4.33846154 22.475,4.21538462 L22.506,4.18461538 C22.599,4.06153846 22.661,3.90769231 22.723,3.72307692 C22.816,3.44615385 22.94,3.10769231 23.219,2.8 C23.281,2.70769231 23.281,2.58461538 23.188,2.49230769 C22.754,2.12307692 22.568,1.50769231 22.63,1.23076923 C22.661,1.04615385 22.661,0.861538462 22.63,0.676923077 C22.971,0.830769231 23.343,1.01538462 23.436,1.13846154 C23.56,1.26153846 23.839,1.6 24.242,2.09230769 C24.273,2.15384615 24.335,2.18461538 24.428,2.18461538 C25.885,2.15384615 26.567,2.33846154 26.691,2.52307692 C26.753,2.61538462 26.846,2.70769231 26.97,2.76923077 C26.97,2.8 27.001,2.8 27.001,2.83076923 C27.032,2.86153846 27.094,2.95384615 27.156,3.04615385 C27.373,3.32307692 27.497,3.50769231 27.621,3.56923077 C27.745,3.66153846 27.962,4.15384615 28.117,5.04615385 C28.117,5.04615385 28.117,5.04615385 28.117,5.04615385 C27.776,5.13846154 27.528,5.26153846 27.435,5.41538462 C27.342,5.56923077 27.311,5.69230769 27.373,5.81538462 C27.497,6.03076923 27.869,6.09230769 28.21,6.09230769 L29.915,6.09230769 C29.76,6.58461538 29.512,6.8 29.202,6.76923077 Z" id="Shape"></path>
                            <path d="M26.567,3.26153846 C26.505,3.26153846 26.443,3.26153846 26.381,3.32307692 C26.04,3.6 25.885,3.81538462 25.947,3.93846154 C25.947,3.96923077 25.978,4 26.04,4.03076923 C26.071,4.03076923 26.102,4.03076923 26.133,4.03076923 C26.35,4.03076923 26.722,3.90769231 26.815,3.84615385 C26.846,3.81538462 26.877,3.78461538 26.877,3.75384615 C26.877,3.66153846 26.815,3.47692308 26.722,3.35384615 C26.691,3.29230769 26.629,3.26153846 26.567,3.26153846 Z" id="Shape"></path>
                        </g>
                    </g>
                    <text id="Lassie" opacity="0.852399554" font-family="LucidaGrande, Lucida Grande" font-size="20" font-weight="normal" fill="#000A12">
                        <tspan x="0" y="19">Lassie</tspan>
                    </text>
                </g>
                <g id="noun_Lamb_112804" transform="translate(22.000000, 29.000000)" fill="#000000" fill-rule="nonzero">
                    <path d="M10.9563026,2.29306842 C10.9563026,2.29306842 10.8416447,2.15478267 10.7142471,1.815354 C10.5868495,1.4633539 10.7397266,1.40049673 10.7524664,1.13649666 C10.7652062,0.872496584 10.5486302,0.771925126 10.5486302,0.771925126 C10.8034255,0.15592495 10.2810952,0.0427820601 10.2810952,0.0427820601 C10.1919168,0.0804963566 10.0135602,0.369639297 10.0135602,0.369639297 C9.63136727,0.15592495 8.66314529,0.331925 8.66314529,0.331925 C8.45930909,0.407353593 8.33191146,0.218782111 8.33191146,0.218782111 C7.88601976,-0.145789423 7.27451114,0.0553534923 7.27451114,0.0553534923 C7.22355209,0.797067991 8.15355478,1.14906809 8.15355478,1.14906809 L8.14081502,1.4256396 C8.14081502,1.63935395 7.72040284,2.20506839 7.54204616,2.43135417 C7.45286782,2.4816399 7.09615446,2.65763995 6.8413592,2.61992566 C6.8413592,2.61992566 5.8476577,2.68278282 5.13423098,2.88392573 C5.13423098,2.88392573 4.12778971,2.89649716 3.61819919,2.67021138 C3.10860868,2.44392561 2.02572883,2.24278269 1.3505214,2.83364 C1.3505214,2.83364 1.31230211,2.85878287 1.26134306,2.9090686 C1.12120567,2.97192576 -0.0126332283,3.47478304 0.000106534564,4.60621194 C0.000106534564,4.60621194 0.114764401,4.88278345 0.318600607,4.85764058 C0.318600607,4.85764058 0.471477761,4.46792619 0.802711596,4.17878325 C0.815451359,4.39249759 0.879150173,4.64392624 0.981068276,4.90792631 C0.981068276,4.90792631 1.23586353,5.62449795 1.19764425,5.91364089 C1.19764425,5.91364089 1.32504187,6.51706963 0.917369462,6.68049825 C0.917369462,6.68049825 0.751752545,6.80621257 0.789971833,6.90678403 C0.789971833,6.90678403 1.2486033,8.70449883 1.37600093,9.33307044 L1.40148045,9.63478481 L1.78367334,9.99935634 C1.78367334,9.99935634 2.43340125,10.0244992 2.47162053,9.76049913 C2.47162053,9.76049913 2.40792172,9.40849903 2.1403867,9.33307044 C2.1403867,9.33307044 2.20408551,9.20735612 2.20408551,9.16964182 C2.20408551,9.13192752 1.82189263,7.89992717 1.91107097,7.64849853 C1.91107097,7.64849853 1.97476978,7.13306981 2.19134575,6.56735536 C2.25504456,6.86906973 2.20408551,7.29649843 2.20408551,7.29649843 C2.1403867,7.42221275 2.22956504,7.66106996 2.22956504,7.66106996 C2.42066148,7.76164142 2.71367603,8.44049875 2.71367603,8.44049875 C2.56079887,8.55364164 2.73915555,9.06907036 2.73915555,9.06907036 C3.17230749,9.32049901 3.65641848,9.10678466 3.65641848,9.10678466 C3.63093896,8.88049888 3.4780618,8.6164988 3.4780618,8.6164988 L3.49080156,8.35249873 C3.21052678,8.02564149 3.07038939,7.18335554 3.07038939,7.18335554 C3.07038939,7.18335554 3.15956773,6.5044982 3.77107635,5.88849802 C4.30614639,6.05192664 5.08327192,6.19021239 6.1916313,6.10221237 C6.1916313,6.10221237 6.61204347,7.25878413 7.04519541,7.92507003 C7.04519541,7.92507003 7.22355209,8.77992742 7.14711351,9.47135619 L7.58026545,9.93649918 C7.58026545,9.93649918 8.15355478,10.1124992 8.44656933,9.79821343 C8.44656933,9.79821343 8.34465122,9.60964195 8.21725359,9.44621333 C8.68862482,9.42107046 8.56122719,9.18221325 8.56122719,9.18221325 L8.20451383,8.84278458 L8.24273312,8.67935596 C8.24273312,8.67935596 7.79684142,7.89992717 8.01341739,7.49764134 L8.01341739,7.42221275 L7.88601976,6.29078385 C7.89875952,6.19021239 7.92423905,6.02678378 7.93697881,5.88849802 C7.96245834,5.87592659 8.77780316,5.4107836 8.94342008,3.78906885 C9.04533818,3.2610687 9.23643462,3.07249721 9.23643462,3.07249721 C9.72054561,3.28621156 10.2428759,3.11021151 10.2428759,3.11021151 C10.8543845,3.19821154 10.9308231,2.83364 10.9308231,2.83364 L10.9053436,2.79592571 L10.9690424,2.73306855 C11.045481,2.59478279 10.9563026,2.29306842 10.9563026,2.29306842 Z" id="Shape"></path>
                </g>
                <g id="noun_Lamb_112804" transform="translate(9.000000, 29.000000)" fill="#000000" fill-rule="nonzero">
                    <path d="M10.9563026,2.29306842 C10.9563026,2.29306842 10.8416447,2.15478267 10.7142471,1.815354 C10.5868495,1.4633539 10.7397266,1.40049673 10.7524664,1.13649666 C10.7652062,0.872496584 10.5486302,0.771925126 10.5486302,0.771925126 C10.8034255,0.15592495 10.2810952,0.0427820601 10.2810952,0.0427820601 C10.1919168,0.0804963566 10.0135602,0.369639297 10.0135602,0.369639297 C9.63136727,0.15592495 8.66314529,0.331925 8.66314529,0.331925 C8.45930909,0.407353593 8.33191146,0.218782111 8.33191146,0.218782111 C7.88601976,-0.145789423 7.27451114,0.0553534923 7.27451114,0.0553534923 C7.22355209,0.797067991 8.15355478,1.14906809 8.15355478,1.14906809 L8.14081502,1.4256396 C8.14081502,1.63935395 7.72040284,2.20506839 7.54204616,2.43135417 C7.45286782,2.4816399 7.09615446,2.65763995 6.8413592,2.61992566 C6.8413592,2.61992566 5.8476577,2.68278282 5.13423098,2.88392573 C5.13423098,2.88392573 4.12778971,2.89649716 3.61819919,2.67021138 C3.10860868,2.44392561 2.02572883,2.24278269 1.3505214,2.83364 C1.3505214,2.83364 1.31230211,2.85878287 1.26134306,2.9090686 C1.12120567,2.97192576 -0.0126332283,3.47478304 0.000106534564,4.60621194 C0.000106534564,4.60621194 0.114764401,4.88278345 0.318600607,4.85764058 C0.318600607,4.85764058 0.471477761,4.46792619 0.802711596,4.17878325 C0.815451359,4.39249759 0.879150173,4.64392624 0.981068276,4.90792631 C0.981068276,4.90792631 1.23586353,5.62449795 1.19764425,5.91364089 C1.19764425,5.91364089 1.32504187,6.51706963 0.917369462,6.68049825 C0.917369462,6.68049825 0.751752545,6.80621257 0.789971833,6.90678403 C0.789971833,6.90678403 1.2486033,8.70449883 1.37600093,9.33307044 L1.40148045,9.63478481 L1.78367334,9.99935634 C1.78367334,9.99935634 2.43340125,10.0244992 2.47162053,9.76049913 C2.47162053,9.76049913 2.40792172,9.40849903 2.1403867,9.33307044 C2.1403867,9.33307044 2.20408551,9.20735612 2.20408551,9.16964182 C2.20408551,9.13192752 1.82189263,7.89992717 1.91107097,7.64849853 C1.91107097,7.64849853 1.97476978,7.13306981 2.19134575,6.56735536 C2.25504456,6.86906973 2.20408551,7.29649843 2.20408551,7.29649843 C2.1403867,7.42221275 2.22956504,7.66106996 2.22956504,7.66106996 C2.42066148,7.76164142 2.71367603,8.44049875 2.71367603,8.44049875 C2.56079887,8.55364164 2.73915555,9.06907036 2.73915555,9.06907036 C3.17230749,9.32049901 3.65641848,9.10678466 3.65641848,9.10678466 C3.63093896,8.88049888 3.4780618,8.6164988 3.4780618,8.6164988 L3.49080156,8.35249873 C3.21052678,8.02564149 3.07038939,7.18335554 3.07038939,7.18335554 C3.07038939,7.18335554 3.15956773,6.5044982 3.77107635,5.88849802 C4.30614639,6.05192664 5.08327192,6.19021239 6.1916313,6.10221237 C6.1916313,6.10221237 6.61204347,7.25878413 7.04519541,7.92507003 C7.04519541,7.92507003 7.22355209,8.77992742 7.14711351,9.47135619 L7.58026545,9.93649918 C7.58026545,9.93649918 8.15355478,10.1124992 8.44656933,9.79821343 C8.44656933,9.79821343 8.34465122,9.60964195 8.21725359,9.44621333 C8.68862482,9.42107046 8.56122719,9.18221325 8.56122719,9.18221325 L8.20451383,8.84278458 L8.24273312,8.67935596 C8.24273312,8.67935596 7.79684142,7.89992717 8.01341739,7.49764134 L8.01341739,7.42221275 L7.88601976,6.29078385 C7.89875952,6.19021239 7.92423905,6.02678378 7.93697881,5.88849802 C7.96245834,5.87592659 8.77780316,5.4107836 8.94342008,3.78906885 C9.04533818,3.2610687 9.23643462,3.07249721 9.23643462,3.07249721 C9.72054561,3.28621156 10.2428759,3.11021151 10.2428759,3.11021151 C10.8543845,3.19821154 10.9308231,2.83364 10.9308231,2.83364 L10.9053436,2.79592571 L10.9690424,2.73306855 C11.045481,2.59478279 10.9563026,2.29306842 10.9563026,2.29306842 Z" id="Shape"></path>
                </g>
                <g id="noun_Lamb_112804" transform="translate(20.000000, 24.000000)" fill="#000000" fill-rule="nonzero">
                    <path d="M10.9563026,2.29306842 C10.9563026,2.29306842 10.8416447,2.15478267 10.7142471,1.815354 C10.5868495,1.4633539 10.7397266,1.40049673 10.7524664,1.13649666 C10.7652062,0.872496584 10.5486302,0.771925126 10.5486302,0.771925126 C10.8034255,0.15592495 10.2810952,0.0427820601 10.2810952,0.0427820601 C10.1919168,0.0804963566 10.0135602,0.369639297 10.0135602,0.369639297 C9.63136727,0.15592495 8.66314529,0.331925 8.66314529,0.331925 C8.45930909,0.407353593 8.33191146,0.218782111 8.33191146,0.218782111 C7.88601976,-0.145789423 7.27451114,0.0553534923 7.27451114,0.0553534923 C7.22355209,0.797067991 8.15355478,1.14906809 8.15355478,1.14906809 L8.14081502,1.4256396 C8.14081502,1.63935395 7.72040284,2.20506839 7.54204616,2.43135417 C7.45286782,2.4816399 7.09615446,2.65763995 6.8413592,2.61992566 C6.8413592,2.61992566 5.8476577,2.68278282 5.13423098,2.88392573 C5.13423098,2.88392573 4.12778971,2.89649716 3.61819919,2.67021138 C3.10860868,2.44392561 2.02572883,2.24278269 1.3505214,2.83364 C1.3505214,2.83364 1.31230211,2.85878287 1.26134306,2.9090686 C1.12120567,2.97192576 -0.0126332283,3.47478304 0.000106534564,4.60621194 C0.000106534564,4.60621194 0.114764401,4.88278345 0.318600607,4.85764058 C0.318600607,4.85764058 0.471477761,4.46792619 0.802711596,4.17878325 C0.815451359,4.39249759 0.879150173,4.64392624 0.981068276,4.90792631 C0.981068276,4.90792631 1.23586353,5.62449795 1.19764425,5.91364089 C1.19764425,5.91364089 1.32504187,6.51706963 0.917369462,6.68049825 C0.917369462,6.68049825 0.751752545,6.80621257 0.789971833,6.90678403 C0.789971833,6.90678403 1.2486033,8.70449883 1.37600093,9.33307044 L1.40148045,9.63478481 L1.78367334,9.99935634 C1.78367334,9.99935634 2.43340125,10.0244992 2.47162053,9.76049913 C2.47162053,9.76049913 2.40792172,9.40849903 2.1403867,9.33307044 C2.1403867,9.33307044 2.20408551,9.20735612 2.20408551,9.16964182 C2.20408551,9.13192752 1.82189263,7.89992717 1.91107097,7.64849853 C1.91107097,7.64849853 1.97476978,7.13306981 2.19134575,6.56735536 C2.25504456,6.86906973 2.20408551,7.29649843 2.20408551,7.29649843 C2.1403867,7.42221275 2.22956504,7.66106996 2.22956504,7.66106996 C2.42066148,7.76164142 2.71367603,8.44049875 2.71367603,8.44049875 C2.56079887,8.55364164 2.73915555,9.06907036 2.73915555,9.06907036 C3.17230749,9.32049901 3.65641848,9.10678466 3.65641848,9.10678466 C3.63093896,8.88049888 3.4780618,8.6164988 3.4780618,8.6164988 L3.49080156,8.35249873 C3.21052678,8.02564149 3.07038939,7.18335554 3.07038939,7.18335554 C3.07038939,7.18335554 3.15956773,6.5044982 3.77107635,5.88849802 C4.30614639,6.05192664 5.08327192,6.19021239 6.1916313,6.10221237 C6.1916313,6.10221237 6.61204347,7.25878413 7.04519541,7.92507003 C7.04519541,7.92507003 7.22355209,8.77992742 7.14711351,9.47135619 L7.58026545,9.93649918 C7.58026545,9.93649918 8.15355478,10.1124992 8.44656933,9.79821343 C8.44656933,9.79821343 8.34465122,9.60964195 8.21725359,9.44621333 C8.68862482,9.42107046 8.56122719,9.18221325 8.56122719,9.18221325 L8.20451383,8.84278458 L8.24273312,8.67935596 C8.24273312,8.67935596 7.79684142,7.89992717 8.01341739,7.49764134 L8.01341739,7.42221275 L7.88601976,6.29078385 C7.89875952,6.19021239 7.92423905,6.02678378 7.93697881,5.88849802 C7.96245834,5.87592659 8.77780316,5.4107836 8.94342008,3.78906885 C9.04533818,3.2610687 9.23643462,3.07249721 9.23643462,3.07249721 C9.72054561,3.28621156 10.2428759,3.11021151 10.2428759,3.11021151 C10.8543845,3.19821154 10.9308231,2.83364 10.9308231,2.83364 L10.9053436,2.79592571 L10.9690424,2.73306855 C11.045481,2.59478279 10.9563026,2.29306842 10.9563026,2.29306842 Z" id="Shape"></path>
                </g>
            </g>
        </g>
    </g>
</svg>